<svg id="Layer_1" data-name="Layer 1" xmlns="http://www.w3.org/2000/svg" viewBox="0 0 360 360"><defs><style>.cls-1,.cls-11,.cls-5,.cls-8{fill:none;}.cls-1,.cls-10,.cls-11,.cls-2,.cls-3,.cls-4,.cls-5,.cls-6,.cls-7,.cls-8{stroke:#231f20;stroke-miterlimit:10;}.cls-1{stroke-width:2px;}.cls-12,.cls-2,.cls-3,.cls-4,.cls-6,.cls-7,.cls-9{fill:#231f20;}.cls-2{stroke-width:0.48px;}.cls-3{stroke-width:0.2px;}.cls-4{stroke-width:0.21px;}.cls-5{stroke-width:2.91px;}.cls-6{stroke-width:0.45px;}.cls-7{stroke-width:0.66px;}.cls-8{stroke-width:3px;}.cls-10{stroke-width:2.9px;}.cls-11{stroke-width:3.38px;}.cls-12{font-size:16px;font-family:TimesNewRomanPS-ItalicMT, Times New Roman;font-style:italic;}</style></defs><rect class="cls-1" x="17" y="16.23" width="327.06" height="327.06"/><path d="M222.53,203.82a9,9,0,0,1,9.34,9.3c.06,5.68-3.87,10-9.25,10.1a10,10,0,0,1-10-10C212.78,207.78,216.9,203.84,222.53,203.82Z"/><path class="cls-2" d="M171.8,80.12V185.5h-2.51s.85-11.39-7.4-13.14V80.12c0-.92,0-2.19-.17-3.69,0-.39-.22-2.14-.49-3.38a15.64,15.64,0,0,0-3.51-6.65,15,15,0,0,1,5.26,1A14.22,14.22,0,0,1,169.17,72,13,13,0,0,1,171.8,80.12Z"/><path class="cls-3" d="M171.29,225.3l.06,15.57-2.54,0a3.27,3.27,0,0,0-.1-.57,6.29,6.29,0,0,0-1.78-3.07,8,8,0,0,0-4.75-2.14c-.14-4.68-.12-7-.08-8.23,0-.67,0-1.34,0-2a8.34,8.34,0,0,0-.44-3.2,4.67,4.67,0,0,0-.74-1.2,4.34,4.34,0,0,0-1.24-1c.72,0,1.74-.08,3-.06,3.67.09,5.68.13,7.08,1.43C170.14,221.23,171.27,222.47,171.29,225.3Z"/><path class="cls-4" d="M235.43,235l.06-15.57-2.57,0c0,.14,0,.34-.1.58A6.43,6.43,0,0,1,231,223.1a8.5,8.5,0,0,1-4.79,2.26c0,2.7-.07,5.4-.11,8.1,0,.82,0,1.5,0,2a8.17,8.17,0,0,1-.45,3.19,4.41,4.41,0,0,1-.75,1.2,4.2,4.2,0,0,1-1.26,1c.73,0,1.76.09,3,.06,3.72-.08,5.77-.13,7.18-1.43C234.26,239.06,235.41,237.83,235.43,235Z"/><path class="cls-5" d="M118.09,185.05c0,13.61,11.74,24.65,26.23,24.65s26.23-11,26.23-24.65"/><path class="cls-6" d="M244.21,253a27.66,27.66,0,0,0-3.48,9.37,46.17,46.17,0,0,0-.49,5.09c0,1-.07,2.58-.13,5.12,0,1.05,0,1,0,1.13a29.48,29.48,0,0,1-.58,5.17,14.3,14.3,0,0,1-3,5.42c-4.44,5-13.26,5.27-14.39,5.28a14.7,14.7,0,0,0,4.89-3.76,13.32,13.32,0,0,0,2.55-5.65,32.64,32.64,0,0,0,.93-7.71c.07-1.34.05-2.11.18-4a28.28,28.28,0,0,1,.45-4.2,14.42,14.42,0,0,1,2.41-5.21,17.68,17.68,0,0,1,3.87-3.3A20.88,20.88,0,0,1,244.21,253Z"/><path class="cls-6" d="M230.44,253.17a27.48,27.48,0,0,0-3.47,9.38,45.33,45.33,0,0,0-.5,5.08c0,1-.07,2.58-.12,5.12,0,1.06,0,1,0,1.14a29.58,29.58,0,0,1-.58,5.17,14.35,14.35,0,0,1-3,5.41c-4.45,5-13.26,5.27-14.4,5.29a14.78,14.78,0,0,0,4.9-3.77,13.57,13.57,0,0,0,2.55-5.65,33.71,33.71,0,0,0,.93-7.71c.06-1.34,0-2.11.18-4a27.6,27.6,0,0,1,.44-4.2,14.39,14.39,0,0,1,2.41-5.2,17.42,17.42,0,0,1,3.87-3.31A21.05,21.05,0,0,1,230.44,253.17Z"/><path class="cls-6" d="M216.19,253.41a27.37,27.37,0,0,0-3.47,9.37,45.33,45.33,0,0,0-.5,5.08c0,1-.07,2.58-.12,5.12,0,1.06,0,1,0,1.14a29.58,29.58,0,0,1-.58,5.17,14.35,14.35,0,0,1-3,5.41c-4.45,5-13.26,5.27-14.4,5.29a14.68,14.68,0,0,0,4.9-3.77,13.44,13.44,0,0,0,2.55-5.65,33.69,33.69,0,0,0,.93-7.7c.06-1.35,0-2.12.18-4.05a27.6,27.6,0,0,1,.44-4.2,14.57,14.57,0,0,1,2.41-5.2,17.28,17.28,0,0,1,3.88-3.31A20.63,20.63,0,0,1,216.19,253.41Z"/><path class="cls-7" d="M181.06,90.73V277.62h2.57c0-1.46.15-3.49.43-5.88a52.94,52.94,0,0,1,1.38-7.7,20.94,20.94,0,0,1,6-9.74V90.73c0-1.63,0-3.88.18-6.55,0-.69.22-3.78.51-6a37.52,37.52,0,0,1,3.66-11.79,10.24,10.24,0,0,0-5.49,1.78c-3.65,2.41-5.69,6.49-6.45,8.22A35.45,35.45,0,0,0,181.06,90.73Z"/><path class="cls-8" d="M182.3,277.34a11.36,11.36,0,0,0,19.61,7.81"/><path class="cls-9" d="M116.61,185.05h3s-.77-8.53,7.49-8.53H116.61Z"/><path class="cls-5" d="M117.28,238.81c0,13.61,11.74,24.65,26.23,24.65s26.23-11,26.23-24.65"/><path class="cls-9" d="M115.79,238.81h3s-.76-8.53,7.49-8.53H115.79Z"/><line class="cls-10" x1="163.08" y1="239.57" x2="226.14" y2="239.57"/><path class="cls-11" d="M160.06,239.28a9.16,9.16,0,1,1,8.21-5.12"/><text class="cls-12" transform="translate(116.61 288.7)">sanwal</text><path class="cls-9" d="M162.06,234.16v22a20.32,20.32,0,0,0,7.75-12.56l.23-9.46Z"/><line class="cls-11" x1="160.06" y1="239.28" x2="228.27" y2="239.28"/><line class="cls-8" x1="193.66" y1="288.7" x2="225.72" y2="288.7"/><path class="cls-9" d="M225,290.16a12.43,12.43,0,0,0,3.24-.22,14.59,14.59,0,0,0,8.43-5.5,39.61,39.61,0,0,1-6.54,3,38.63,38.63,0,0,1-5.13,1.43Z"/></svg>