<?xml version="1.0" encoding="utf-8"?>
<!-- Generator: Adobe Illustrator 27.3.1, SVG Export Plug-In . SVG Version: 6.00 Build 0)  -->
<svg version="1.1" id="Layer_1" xmlns="http://www.w3.org/2000/svg" xmlns:xlink="http://www.w3.org/1999/xlink" x="0px" y="0px"
	 viewBox="0 0 360 360" style="enable-background:new 0 0 360 360;" xml:space="preserve">
<style type="text/css">
	.st0{fill:#1C180D;stroke:#231F20;stroke-width:2;stroke-miterlimit:10;}
	.st1{fill:#FFFFFF;}
	.st2{fill:#FFFFFF;stroke:#FFFFFF;stroke-width:0.48;stroke-miterlimit:10;}
	.st3{fill:#FFFFFF;stroke:#FFFFFF;stroke-width:0.2;stroke-miterlimit:10;}
	.st4{fill:#FFFFFF;stroke:#FFFFFF;stroke-width:0.21;stroke-miterlimit:10;}
	.st5{fill:#1C180D;stroke:#FFFFFF;stroke-width:2.91;stroke-miterlimit:10;}
	.st6{fill:#FFFFFF;stroke:#FFFFFF;stroke-width:0.45;stroke-miterlimit:10;}
	.st7{fill:#FFFFFF;stroke:#FFFFFF;stroke-width:0.66;stroke-miterlimit:10;}
	.st8{fill:#FFFFFF;stroke:#FFFFFF;stroke-width:3;stroke-miterlimit:10;}
	.st9{fill:#FFFFFF;stroke:#FFFFFF;stroke-width:2.9;stroke-miterlimit:10;}
	.st10{fill:#FFFFFF;stroke:#FFFFFF;stroke-width:3.38;stroke-miterlimit:10;}
	.st11{font-family:'TimesNewRomanPS-ItalicMT';}
	.st12{font-size:16px;}
</style>
<rect x="17" y="16.2" class="st0" width="327.1" height="327.1"/>
<path class="st1" d="M222.5,203.8c5-0.2,9.1,3.7,9.3,8.6c0,0.2,0,0.4,0,0.7c0.1,5.7-3.9,10-9.2,10.1c-5.5,0-10-4.5-10-10
	C212.8,207.8,216.9,203.8,222.5,203.8z"/>
<path class="st2" d="M171.8,80.1v105.4h-2.5c0,0,0.9-11.4-7.4-13.1V80.1c0-0.9,0-2.2-0.2-3.7c0-0.4-0.2-2.1-0.5-3.4
	c-0.6-2.5-1.8-4.8-3.5-6.7c1.8,0,3.6,0.4,5.3,1c2.4,0.9,4.6,2.5,6.2,4.6C170.9,74.3,171.9,77.2,171.8,80.1z"/>
<path class="st3" d="M171.3,225.3l0.1,15.6h-2.5c0-0.2,0-0.4-0.1-0.6c-0.3-1.2-0.9-2.2-1.8-3.1c-1.3-1.2-3-2-4.8-2.1
	c-0.1-4.7-0.1-7-0.1-8.2c0-0.7,0-1.3,0-2c0.1-1.1-0.1-2.2-0.4-3.2c-0.2-0.4-0.4-0.8-0.7-1.2c-0.3-0.4-0.8-0.7-1.2-1
	c0.7,0,1.7-0.1,3-0.1c3.7,0.1,5.7,0.1,7.1,1.4C170.1,221.2,171.3,222.5,171.3,225.3z"/>
<path class="st4" d="M235.4,235l0.1-15.6h-2.6c0,0.1,0,0.3-0.1,0.6c-0.3,1.2-0.9,2.3-1.8,3.1c-1.3,1.2-3,2-4.8,2.3
	c0,2.7-0.1,5.4-0.1,8.1c0,0.8,0,1.5,0,2c0.1,1.1-0.1,2.2-0.4,3.2c-0.2,0.4-0.4,0.8-0.8,1.2c-0.4,0.4-0.8,0.8-1.3,1
	c0.7,0,1.8,0.1,3,0.1c3.7-0.1,5.8-0.1,7.2-1.4C234.3,239.1,235.4,237.8,235.4,235z"/>
<path class="st5" d="M118.1,185.1c0,13.6,11.7,24.6,26.2,24.6s26.2-11,26.2-24.6"/>
<path class="st6" d="M244.2,253c-1.7,2.9-2.9,6.1-3.5,9.4c-0.3,1.7-0.4,3.4-0.5,5.1c0,1-0.1,2.6-0.1,5.1c0,1,0,1,0,1.1
	c0,1.7-0.2,3.5-0.6,5.2c-0.6,2-1.6,3.9-3,5.4c-4.4,5-13.3,5.3-14.4,5.3c1.9-0.9,3.5-2.2,4.9-3.8c1.3-1.7,2.2-3.6,2.6-5.6
	c0.6-2.5,0.9-5.1,0.9-7.7c0.1-1.3,0.1-2.1,0.2-4c0-1.4,0.2-2.8,0.4-4.2c0.4-1.9,1.3-3.7,2.4-5.2c1.1-1.3,2.4-2.4,3.9-3.3
	C239.5,254.4,241.8,253.5,244.2,253z"/>
<path class="st6" d="M230.4,253.2c-1.7,2.9-2.9,6.1-3.5,9.4c-0.3,1.7-0.4,3.4-0.5,5.1c0,1-0.1,2.6-0.1,5.1c0,1.1,0,1,0,1.1
	c0,1.7-0.2,3.5-0.6,5.2c-0.6,2-1.6,3.8-3,5.4c-4.4,5-13.3,5.3-14.4,5.3c1.9-0.9,3.6-2.2,4.9-3.8c1.3-1.7,2.1-3.6,2.6-5.6
	c0.6-2.5,0.9-5.1,0.9-7.7c0.1-1.3,0-2.1,0.2-4c0-1.4,0.2-2.8,0.4-4.2c0.4-1.9,1.3-3.6,2.4-5.2c1.1-1.3,2.4-2.4,3.9-3.3
	C225.7,254.6,228,253.7,230.4,253.2z"/>
<path class="st6" d="M216.2,253.4c-1.7,2.9-2.9,6.1-3.5,9.4c-0.3,1.7-0.4,3.4-0.5,5.1c0,1-0.1,2.6-0.1,5.1c0,1.1,0,1,0,1.1
	c0,1.7-0.2,3.5-0.6,5.2c-0.6,2-1.6,3.8-3,5.4c-4.4,5-13.3,5.3-14.4,5.3c1.9-0.9,3.6-2.2,4.9-3.8c1.3-1.7,2.2-3.6,2.6-5.6
	c0.6-2.5,0.9-5.1,0.9-7.7c0.1-1.4,0-2.1,0.2-4c0-1.4,0.2-2.8,0.4-4.2c0.5-1.9,1.3-3.6,2.4-5.2c1.1-1.3,2.4-2.4,3.9-3.3
	C211.5,254.8,213.8,253.9,216.2,253.4z"/>
<path class="st7" d="M181.1,90.7v186.9h2.6c0-1.5,0.1-3.5,0.4-5.9c0.3-2.6,0.7-5.2,1.4-7.7c1.1-3.7,3.1-7.1,6-9.7V90.7
	c0-1.6,0-3.9,0.2-6.6c0-0.7,0.2-3.8,0.5-6c0.6-4.1,1.8-8.1,3.7-11.8c-2,0.1-3.9,0.7-5.5,1.8c-3.6,2.4-5.7,6.5-6.4,8.2
	C181.9,80.9,181,85.8,181.1,90.7z"/>
<path class="st8" d="M182.3,277.3c0,6.3,5.1,11.4,11.4,11.4c3.1,0,6.1-1.3,8.3-3.6"/>
<path class="st1" d="M116.6,185.1h3c0,0-0.8-8.5,7.5-8.5h-10.5V185.1z"/>
<path class="st5" d="M117.3,238.8c0,13.6,11.7,24.6,26.2,24.6s26.2-11,26.2-24.6"/>
<path class="st1" d="M115.8,238.8h3c0,0-0.8-8.5,7.5-8.5h-10.5V238.8z"/>
<line class="st9" x1="163.1" y1="239.6" x2="226.1" y2="239.6"/>
<path class="st10" d="M160.1,239.3c-5.1,0-9.2-4.1-9.2-9.1c0-5.1,4.1-9.2,9.1-9.2c5.1,0,9.2,4.1,9.2,9.1c0,1.4-0.3,2.8-0.9,4.1"/>
<text transform="matrix(1 0 0 1 116.61 288.7)" class="st1 st11 st12">sanwal</text>
<path class="st1" d="M162.1,234.2v22c4.1-3.1,6.8-7.5,7.8-12.6l0.2-9.5L162.1,234.2z"/>
<line class="st10" x1="160.1" y1="239.3" x2="228.3" y2="239.3"/>
<line class="st8" x1="193.7" y1="288.7" x2="225.7" y2="288.7"/>
<path class="st1" d="M225,290.2c1.1,0.1,2.2,0,3.2-0.2c3.4-0.8,6.4-2.7,8.4-5.5c-2.1,1.2-4.3,2.2-6.5,3c-1.7,0.6-3.4,1.1-5.1,1.4
	L225,290.2z"/>
</svg>
